<svg width="200" height="322" viewBox="0 0 200 322" fill="none" xmlns="http://www.w3.org/2000/svg">
<g id="full-pp">
<g id="balls">
<path d="M96.7004 104.202C86.2344 228.13 -22.9529 140.191 8 84L34.5 36.5C42.6667 21.3334 79.4 -3.69993 161 17.5C193.8 63.5 197.5 84 197.5 84C180.303 226.301 106.55 151.987 96.7004 104.202Z" fill="#B5A778"/>
<path d="M8 84C-24.5 143 97.4999 237 97.5 84C81 122 177.5 249.5 197.5 84C197.5 84 193.8 63.5 161 17.5C79.4 -3.69993 42.6667 21.3334 34.5 36.5L8 84Z" stroke="black" stroke-width="3"/>
</g>
<g id="pp">
<path d="M59 234L49 20C55.8333 8.33335 85.9 -9.59998 151.5 12V123V234C139.485 298.19 124.857 320.56 110.5 320.13C89.9655 319.514 69.9858 272.254 59 234Z" fill="#B5A778"/>
<path d="M59 234L49 20C55.8333 8.33335 85.9 -9.59998 151.5 12V123V234M59 234C72.1667 224.833 109.1 212 151.5 234M59 234C69.9858 272.254 89.9655 319.514 110.5 320.13M151.5 234C139.485 298.19 124.857 320.56 110.5 320.13M110.5 320.13L110.5 313.5" stroke="black" stroke-width="3"/>
</g>
</g>
</svg>
